<?xml version="1.0" encoding="UTF-8" standalone="no"?><!DOCTYPE svg PUBLIC "-//W3C//DTD SVG 1.1//EN" "http://www.w3.org/Graphics/SVG/1.1/DTD/svg11.dtd"><svg width="100%" height="100%" viewBox="0 0 1074 206" version="1.1" xmlns="http://www.w3.org/2000/svg" xmlns:xlink="http://www.w3.org/1999/xlink" xml:space="preserve" xmlns:serif="http://www.serif.com/" style="fill-rule:evenodd;clip-rule:evenodd;stroke-linejoin:round;stroke-miterlimit:2;"><rect id="Artboard1" x="0" y="0" width="1073.92" height="205.001" style="fill:none;"/><clipPath id="_clip1"><rect x="0" y="0" width="1073.92" height="205.001"/></clipPath><g clip-path="url(#_clip1)"><g><circle cx="806.243" cy="17.609" r="17.75" style="fill:#6048ef;"/><path d="M93.634,15.001c-19.55,-0 -31.241,12.3 -36.341,20.7c-2.9,4.7 -5.6,13.8 -8.8,29.3c-2.2,10.8 -7,22 -11.8,27.8c-4.7,5.6 -14.6,12.6 -21.6,15.2c-5.4,2.1 -14.9,2 -14.9,2l-0.2,95c6.951,-0 22.976,-5.976 31.7,-14.3c5.9,-5.6 10.5,-15 12.2,-25.3c3.3,-18.7 5.9,-27 11.1,-34.7c10.002,-15.003 25.456,-20.959 40,-20.959l-0.6,-37.541c-0.3,-20.2 -0.759,-56.7 -0.759,-57.2Z" style="fill:#6048ef;fill-rule:nonzero;"/><path d="M283.634,15.001c-19.55,-0 -31.241,12.3 -36.341,20.7c-2.9,4.7 -5.6,13.8 -8.8,29.3c-2.2,10.8 -7,22 -11.8,27.8c-4.7,5.6 -14.6,12.6 -21.6,15.2c-5.4,2.1 -14.9,2 -14.9,2l-0.2,95c6.951,-0 22.976,-5.976 31.7,-14.3c5.9,-5.6 10.5,-15 12.2,-25.3c3.3,-18.7 5.9,-27 11.1,-34.7c10.002,-15.003 25.456,-20.959 40,-20.959l-0.6,-37.541c-0.3,-20.2 -0.759,-56.7 -0.759,-57.2Z" style="fill:#6048ef;fill-rule:nonzero;"/><path d="M188.634,15.001c-19.55,-0 -31.241,12.3 -36.341,20.7c-2.9,4.7 -5.6,13.8 -8.8,29.3c-2.2,10.8 -7,22 -11.8,27.8c-4.7,5.6 -14.6,12.6 -21.6,15.2c-5.4,2.1 -14.9,2 -14.9,2l-0.2,95c6.951,-0 22.976,-5.976 31.7,-14.3c5.9,-5.6 10.5,-15 12.2,-25.3c3.3,-18.7 5.9,-27 11.1,-34.7c10.002,-15.003 25.456,-20.959 40,-20.959l-0.6,-37.541c-0.3,-20.2 -0.759,-56.7 -0.759,-57.2Z" style="fill:#6048ef;fill-rule:nonzero;"/><path d="M702.993,26.201c-0,12.3 -0.8,14.8 -5.3,18.2c-2.1,1.5 -4.7,2.2 -10,2.4l-7.3,0.4l0.1,27.867l22.5,-0l-0,58.763c-0,22.034 14.013,38.34 39.867,39.17l26.033,0.3l-0,-15.7l0.1,-15.6c-0,-0 -19.918,-0.463 -24.551,-0.463c-6,-0 -8.949,-3.604 -8.949,-9.604c-0,-57.433 -0,-56.866 -0,-56.866l39.5,0.233l-0,-28.3l-19.7,-0.2l-19.8,-0.3l-0,-31.5l-32.5,-0l-0,11.2Z" style="fill:#6048ef;fill-rule:nonzero;"/><path d="M417.993,44.401c-16.633,-0 -31.867,12.533 -38.2,19.966l-0,-17.366l-30.4,-0l-0.5,126l33.1,-0c-0,-0 -0.133,-88.748 0.052,-88.933c6.285,-6.286 18.461,-8.978 25.835,-8.978c9.369,0 16.865,6.344 16.665,15.711c-0.098,4.566 -0.052,82.2 -0.052,82.2l33.5,-0c-0,-0 -0.802,-88.48 -0.448,-88.834c4.95,-4.95 12.515,-9.099 25.915,-9.099c9.243,-0 16.585,7.166 16.585,14.999c-0,3.934 -0.052,82.934 -0.052,82.934l33.1,-0l-0.698,-82.477c0,-11.673 -0.302,-16.423 -5.602,-26.823c-4.1,-8 -14.5,-15.7 -25.3,-18.6c-5.7,-1.5 -16.3,-1.4 -22.1,0.4c-7.6,2.2 -15.7,7 -20.8,12.3c-2.5,2.6 -6.334,6.588 -6.6,6.2c-5.825,-8.524 -17.367,-19.6 -34,-19.6Z" style="fill:#6048ef;fill-rule:nonzero;"/><path d="M593.493,47.101c-11.4,2.9 -19,7.4 -28.1,16.5c-9.3,9.2 -12.9,15.8 -16.5,29.4c-3.9,15.1 -1.5,36.3 5.8,50.3c4.462,8.752 12.406,17.826 25.7,24.2c26.4,12.6 57.7,8.1 77.2,-11.2c13.2,-13.1 18.8,-27.1 18.8,-46.8c-0,-27.3 -12.5,-48.6 -34,-58.1c-14.6,-6.4 -33.9,-8.1 -48.9,-4.3Zm32.1,28c10.5,4.7 16.5,17.3 16.5,34.4c-0,27.1 -15.7,41.3 -39.9,36.1c-3.3,-0.7 -10.1,-5.6 -13.4,-9.6c-10.5,-13.1 -9.7,-43.1 1.5,-55.2c7.4,-8 24,-10.6 35.3,-5.7Z" style="fill:#6048ef;fill-rule:nonzero;"/><path d="M965.984,47.001c-0.3,-0.1 -37.791,-0 -37.791,-0c-0,-0 -27.734,92.621 -28.034,92.721c-1.2,-4.4 -27.891,-92.637 -27.891,-92.637l-38.075,-0.084l49.1,126l33.182,-0c4.2,-10.6 49.909,-125.8 49.509,-126Z" style="fill:#6048ef;fill-rule:nonzero;"/><rect x="789.993" y="47.001" width="32.5" height="126" style="fill:#6048ef;fill-rule:nonzero;"/><path d="M1019.85,47.001c-26.1,-0.019 -39.819,10.801 -45.757,20.5c-2.6,4.2 -7.1,15.8 -7.1,18.4c-0,0.4 5.5,1.5 12.3,2.5c6.7,1 12.9,2 13.8,2.2c1.2,0.3 1.9,-0.4 2.3,-2.2c0.7,-2.6 4.9,-9.9 7.1,-12c5,-5.1 17.2,-6.9 27.6,-4.3c8,2.1 11.9,7.5 11.9,16.9l-0,3.5c-0,-0 -27.286,5.971 -32.2,7.2c-7.037,1.759 -16.456,4.409 -23.3,7.7c-7.1,3.4 -11,6 -15.4,10.3c-7.3,7.4 -9.6,13.3 -8.9,23.7c-0,17.558 18.898,33.382 44.171,33.182c13.932,-0.11 31.789,-11.874 37.389,-17.174c-0.1,0.114 0.14,15.592 0.14,15.592l30,-0l-0,-41.8c-0,-22.9 0.031,-41.862 0.031,-47.133c0,-10.572 -9.331,-25.667 -19.331,-31.067c-4.1,-2.2 -6.8,-2.9 -8.3,-3.4c-6.758,-1.951 -10.843,-2.59 -26.443,-2.6Zm22.243,66.628c-0.1,0.5 -0.1,20.872 -0.1,20.872l-4.2,3c-12.4,8.9 -22.7,12 -33.4,10.1c-4.8,-0.9 -9.1,-4.8 -10,-9.1c-0.9,-4.6 3.8,-10.4 11.7,-14.2c7.841,-3.921 32.714,-10.586 36,-10.672Z" style="fill:#6048ef;fill-rule:nonzero;"/></g></g></svg>